<?xml version="1.0" encoding="UTF-8" standalone="no"?> <!-- Created with Vectornator for iOS (http://vectornator.io/) --><!DOCTYPE svg PUBLIC "-//W3C//DTD SVG 1.1//EN" "http://www.w3.org/Graphics/SVG/1.1/DTD/svg11.dtd">
<svg height="100%" style="fill-rule:evenodd;clip-rule:evenodd;stroke-linecap:round;stroke-linejoin:round;" xmlns:xlink="http://www.w3.org/1999/xlink" xmlns="http://www.w3.org/2000/svg" xml:space="preserve" width="100%" xmlns:vectornator="http://vectornator.io" version="1.1" viewBox="0 0 841.995 595.35">
<metadata>
<vectornator:setting key="DimensionsVisible" value="1"/>
<vectornator:setting key="New" value="1"/>
<vectornator:setting key="SnapToPoints" value="1"/>
<vectornator:setting key="GuidesVisible" value="1"/>
<vectornator:setting key="RulersVisible" value="1"/>
<vectornator:setting key="CMYKEnabledKey" value="0"/>
<vectornator:setting key="SnapToEdges" value="1"/>
<vectornator:setting key="DisplayWhiteBackground" value="0"/>
<vectornator:setting key="SnapToGuides" value="1"/>
<vectornator:setting key="GridSpacing" value="36"/>
<vectornator:setting key="SnapToGrid" value="0"/>
<vectornator:setting key="Units" value="Millimeters"/>
<vectornator:setting key="DynamicGuides" value="1"/>
</metadata>
<defs>
<linearGradient y1="315.827" id="LinearGradient" x1="163.706" y2="271.294" x2="642.529" gradientUnits="userSpaceOnUse" gradientTransform="matrix(0.0908348 -0.995866 0.995866 0.0908348 91.4862 660.774)">
<stop stop-color="#ff009c" offset="0.315"/>
<stop stop-color="#e19215" offset="0.695"/>
<stop stop-color="#e4c414" offset="0.9825"/>
</linearGradient>
</defs>
<g id="Layer 1" vectornator:layerName="Layer 1">
<path d="M413.281+45.0625C296.634+46.2144+196.749+130.702+177+245.75L655.312+245.75C637.059+140.511+549.911+56.2616+438.094+46.0625C429.749+45.3014+421.483+44.9815+413.281+45.0625ZM176.344+249.5C175.747+253.338+175.26+257.222+174.844+261.125L657.5+261.125C657.081+257.217+656.543+253.356+655.938+249.5L176.344+249.5ZM174.25+267.438C173.75+273.638+173.497+279.784+173.469+285.906L658.844+285.906C658.821+279.696+658.524+273.546+658.031+267.438L174.25+267.438ZM173.656+296.375C174.018+305.72+174.867+314.952+176.281+324.031L655.969+324.031C656.736+319.059+657.412+314.047+657.875+308.969C658.259+304.759+658.523+300.551+658.688+296.375L173.656+296.375ZM178.656+337.094C180.518+345.827+182.897+354.397+185.688+362.781L646.656+362.781C649.413+354.427+651.714+345.854+653.562+337.094L178.656+337.094ZM194.719+385.844C199.014+395.352+203.857+404.572+209.312+413.406L623.125+413.406C628.555+404.595+633.401+395.387+637.688+385.844L194.719+385.844ZM228.781+440.531C236.757+450.184+245.487+459.228+254.875+467.562L577.562+467.562C586.953+459.237+595.736+450.232+603.75+440.531L228.781+440.531ZM305.281+502C332.213+515.806+362.181+524.831+394.188+527.75C441.891+532.101+487.586+522.344+527.219+502L305.281+502Z" opacity="1" fill="url(#LinearGradient)"/>
<path stroke="#6b7799" vectornator:shadowColor="#000000" vectornator:shadowOffset="5.47512" stroke-width="1" fill="#ffffff" stroke-linecap="butt" vectornator:shadowAngle="3.39228" stroke-linejoin="round" opacity="1" vectornator:shadowRadius="12.2172" d="M180.033+221.056C179.068+221.176+177.919+221.516+176.565+222.164C171.536+224.569+163.56+224.796+168.22+236.113C170.635+239.342+169.451+247.658+165.964+259.374C96.5978+284.134+40.9404+303.883+21.4952+317.113C18.971+321.852+20.407+330.992+42.5281+321.252C47.8797+318.895+49.0376+316.644+67.7415+309.212C91.9374+299.597+126.296+286.378+161.47+272.938C151.562+300.604+133.992+339.898+117.636+379.484C110.663+396.361+103.91+413.292+98.0664+429.397C88.0369+434.94+92.0095+458.517+109.813+436.997C120.709+399.177+160.326+315.516+177.273+266.909C241.729+242.349+304.59+218.756+309.099+217.266C316.025+211.786+315.825+216.662+325.971+211.507C327.823+203.823+318.877+196.239+314.188+199.535C309.5+202.832+294.421+207.651+275.116+219.556C242.287+231.97+211.028+243.24+181.468+253.815C184.12+244.763+185.553+237.623+184.932+233.657C184.818+230.901+186.794+220.216+180.033+221.056ZM314.821+272.44C312.286+272.934+308.866+275.155+304.44+280.36C300.419+286.404+296.84+292.81+288.672+303.474C268.726+324.221+245.141+357.363+235.714+362.095C242.267+353.917+242.235+348.821+238.751+346.774C235.464+344.842+231.082+344.384+227.78+352.019C227.906+357.519+225.616+362.739+218.902+364.835L219.016+357.847C219.016+357.847+216.898+346.417+208.89+356.59C200.882+366.763+195.781+368.704+195.781+368.704C202.259+349.914+191.738+353.209+191.738+353.209L185.114+355.659C185.114+355.659+175.459+348.169+169.708+359.279C147.032+385.68+155.126+390.789+155.126+390.789C161.874+394.426+167.62+390.707+181.431+378.024C181.431+378.024+185.945+387.34+200.28+376.107C200.28+376.107+205.066+370.895+209.916+370.571C209.916+370.571+212.014+377.287+222.973+372.13C223.403+377.795+221.551+376.762+219.815+382.877C208.755+400.13+186.179+421.863+178.744+441.136C178.931+448.494+187.677+450.039+192.053+442.922C196.429+435.806+225.932+396.703+225.932+396.703C225.932+396.703+228.17+388.197+229.28+386.722C230.39+385.247+251.794+356.774+256.635+355.482C258.263+358.217+256.413+366.606+276.722+350.85C276.722+350.85+276.092+364.728+301.939+348.98C301.939+348.98+311.997+343.479+316.402+331.845L329.463+326.926L322.418+339.539C322.418+339.539+319.367+349.868+331.555+346.564C343.744+343.26+354.364+333.265+364.242+334.006C368.704+334.68+374.568+333.378+373.343+325.036C372.118+316.695+368.058+319.649+365.077+323.792C362.095+327.936+334.348+339.783+330.176+341.319C326.004+342.854+341.86+323.566+341.86+323.566C341.86+323.566+347.27+311.92+335.079+317.07C322.888+322.22+312.627+324.888+312.627+324.888C310.162+323.049+299.988+319.583+299.027+324.619C292.4+327.796+279.24+337.638+268.336+348.421C268.336+348.421+278.325+328.361+281.347+326.259C283.748+318.553+307.658+301.534+319.923+280.839C321.688+278.618+320.4+271.352+314.821+272.44ZM301.878+334.524C304.388+335.339+302.149+337.127+307.625+334.689C304.187+343.225+288.847+350.652+287.405+350.612C285.964+350.572+296.821+338.505+301.878+334.524ZM176.283+364.933C177.538+364.373+178.729+364.464+179.732+365.564C183.68+367.343+171.179+382.182+166.762+378.859C168.2+374.244+172.517+366.613+176.283+364.933ZM390.376+182.843C373.622+187.078+372.229+194.976+380.769+199.855C390.528+205.432+398.406+194.088+398.406+194.088C398.406+194.088+518.971+166.695+542.844+209.672C554.369+226.159+485.568+256.961+454.731+262.163C453.866+262.309+452.893+262.542+452.005+262.704C453.235+254.631+454.089+246.453+454.014+238.327C454.014+238.327+454.994+236.778+456.699+230.006C457.558+226.59+452.785+224.784+448.252+225.472C439.67+225.233+439.367+235.968+439.367+235.968C441.216+240.834+440+252.306+437.566+265.768C409.249+272.503+377.862+283.378+377.862+283.378C377.862+283.378+366.243+289.94+383.063+293.693C388.804+294.974+408.445+293.471+431.806+292.627C425.388+319.096+417.705+344.433+417.705+344.433C417.705+344.433+423.596+355.389+431.367+350.743C435.256+348.418+433.636+344.108+433.637+344.108L430.885+338.862C433.834+327.902+440.212+311.235+445.544+292.241C488.222+291.486+537.61+294.882+544.474+320.991C537.755+330.269+551.496+337.009+556.895+326.525C560.876+294.407+506.548+284.219+447.791+283.855C448.6+280.629+449.289+277.343+449.982+274.028C515.309+256.04+558.388+233.009+555.719+210.585C549.492+180.82+485.694+161.004+398.524+181.268C395.488+181.704+392.769+182.238+390.376+182.843ZM435.238+277.906C434.81+279.893+434.286+281.932+433.827+283.948C423.569+284.142+413.303+284.563+403.314+285.23C414.366+282.923+425.024+280.474+435.238+277.906ZM621.423+245.783C619.404+246.285+617.129+247.936+614.098+251.035C610.994+256.132+603.932+257.079+594.841+260.562C586.962+262.942+576.709+264.872+576.709+264.872C576.709+264.872+568.342+259.092+558.398+272.567C548.455+286.042+549.532+293.97+555.496+296.412C561.459+298.853+577.963+290.91+580.449+288.078C582.935+285.245+593.23+277.091+590.653+270.23C592.9+267.085+599.481+268.26+604.167+265.716C602.098+269.951+598.763+276.964+605.285+281.507C611.808+286.05+618.935+277.368+621.424+279.254C620.523+283.114+620.183+287.107+620.183+287.107C620.183+287.107+597.236+307.046+590.258+319.125C575.368+340.065+589.52+352.51+605.367+335.686C625.98+313.802+627.201+308.679+631.296+290.833C631.117+286.362+644.762+274.194+648.235+271.318C654.122+270.402+668.215+269.064+677.86+258.12C679.481+254.983+685.619+246.242+683.515+242.082C685.767+239.544+690.163+239.716+690.163+239.716C690.163+239.716+686.006+251.681+702.475+247.468C706.687+246.39+710.048+244.721+712.749+242.769C712.844+244.768+715.18+246.173+721.705+245.2C734.584+239.864+770.144+214.909+830.473+200.292C838.326+196.262+830.691+191.025+827.677+191.918C805.779+199.384+748.752+222.712+736.753+231.22C748.439+221.528+750.669+218.024+740.078+216.417C730.436+215.159+720.836+218.772+720.836+218.772C720.836+218.772+721.859+213.554+714.709+216.601C707.558+219.647+714.516+222.716+713.885+224.771C713.254+226.826+713.931+235.176+704.609+240.792C695.287+246.409+698.514+241.893+698.515+241.893C698.515+241.893+710.215+226.4+696.189+229.767C686.121+232.184+684.662+233.626+684.619+234.254C683.43+230.835+680.35+232.418+680.35+232.418C680.35+232.418+673.661+232.54+673.23+238.349C672.799+244.158+677.071+243.916+672.334+251.031C667.596+258.147+663.67+262.844+656.412+262.146C665.126+251.43+673.555+234.365+665.057+232.54C662.248+233.478+654.582+230.373+644.378+262.01C642.585+266.655+639.571+269.535+637.547+271.044C636.318+271.96+635.454+272.366+635.454+272.366C635.454+272.366+632.947+265.505+638.012+255.576C640.368+246.246+631.475+240.356+627.251+247.431C625.203+245.927+623.443+245.281+621.423+245.783ZM659.51+242.682C660.061+242.606+660.596+242.702+661.075+243.011C663.229+245.57+657.819+256.406+652.57+256.864C650.61+252.251+655.652+243.215+659.51+242.682ZM619.324+257.288C621.382+256.801+622.789+258.208+622.789+258.208L622.359+268.367C622.359+268.367+614.652+274.282+611.602+275.301C608.552+276.319+610.963+267.227+615.07+260.911C616.609+258.543+618.089+257.581+619.324+257.288ZM726.173+223.617C730.704+222.236+737.539+222.314+737.539+222.314C737.539+222.314+726.975+228.85+720.215+234.146C722.038+230.657+722.73+227.404+722.747+225.551C723.403+224.708+724.663+224.078+726.173+223.617ZM571.114+276.984C575.504+276.95+576.1+277.043+580.548+275.558C578.6+278.556+570.643+286.065+564.066+288.106C562.019+288.351+566.966+280.122+571.114+276.984ZM609.194+304.531C611.736+304.893+613.216+303.718+615.163+303.618C614.393+318.15+598.291+332.157+593.967+332.72C589.473+324.537+601.409+312.854+609.194+304.531Z" vectornator:shadowOpacity="1"/>
</g>
</svg>
