<?xml version="1.0" encoding="UTF-8" standalone="no"?> <!-- Created with Vectornator for iOS (http://vectornator.io/) --><!DOCTYPE svg PUBLIC "-//W3C//DTD SVG 1.1//EN" "http://www.w3.org/Graphics/SVG/1.1/DTD/svg11.dtd">
<svg height="100%" style="fill-rule:evenodd;clip-rule:evenodd;stroke-linecap:round;stroke-linejoin:round;" xmlns:xlink="http://www.w3.org/1999/xlink" xmlns="http://www.w3.org/2000/svg" xml:space="preserve" width="100%" xmlns:vectornator="http://vectornator.io" version="1.1" viewBox="0 0 2048 1536">
<metadata>
<vectornator:setting key="DimensionsVisible" value="1"/>
<vectornator:setting key="DynamicGuides" value="0"/>
<vectornator:setting key="SnapToPoints" value="0"/>
<vectornator:setting key="GuidesVisible" value="1"/>
<vectornator:setting key="RulersVisible" value="1"/>
<vectornator:setting key="CMYKEnabledKey" value="0"/>
<vectornator:setting key="SnapToEdges" value="0"/>
<vectornator:setting key="DisplayWhiteBackground" value="0"/>
<vectornator:setting key="SnapToGuides" value="0"/>
<vectornator:setting key="GridSpacing" value="36"/>
<vectornator:setting key="SnapToGrid" value="0"/>
<vectornator:setting key="Units" value="Pixels"/>
<vectornator:setting key="New" value="1"/>
</metadata>
<defs/>
<g id="Mountains" vectornator:layerName="Mountains">
<path stroke="#2a0439" stroke-width="20.62" d="M2041.61+721.497L8.29083+718.344L4.92309+502.177L65.9865+563.465L142.771+601.857L188.273+547.823L220.3+570.59L253.15+556.075L366.215+533.921C366.215+533.921+380.73+503.362+379.966+493.431C379.203+483.5+428.859+447.594+428.859+447.594L531.229+503.362L631.307+433.843L729.237+414L831.462+285.636L931.54+436.899L1035.44+457.525L1131.7+550.728L1358.59+433.843L1477.77+597.329L1642.9+560.545L1745.48+627.341L1916.05+509.256L1958.99+545.039L2041.78+417.639L2041.61+721.497Z" fill="#132148" stroke-linecap="round" opacity="1" stroke-linejoin="round"/>
<path stroke="#132148" stroke-width="15.07" d="M2038.81+459.764L2040.35+459.764L2040.35+528.72L2038.81+528.72L2038.81+459.764Z" fill="#132148" stroke-linecap="butt" opacity="1" stroke-linejoin="miter"/>
<path stroke="#132148" stroke-width="20.17" d="M4.9694+750.954L6.13705+750.954L6.13705+537.998L4.9694+537.998L4.9694+750.954Z" fill="#132148" stroke-linecap="butt" opacity="1" stroke-linejoin="miter"/>
<path stroke="#8f270d" stroke-width="20.62" d="M2042.57+758.089L6.48408+777.516L7.13385+565.624L86.4227+628.042L147.927+642.293L192.964+598.614L219.971+612.702L268.082+592.185L399.435+569.535C399.435+569.535+418.726+535.835+417.97+526.193C417.214+516.551+443.021+502.818+443.021+502.818L535.148+563.424L654.115+480.88L759.582+458.178L827.078+358.314L904.933+473.598L1013.33+499.088L1125.78+610.396L1345.31+493.472L1460.07+647.085L1634.25+610.5L1748.63+690.056L1911.98+569.164L1968.85+598.428L2038.87+508.085L2042.57+758.089Z" fill="#1f4a77" stroke-linecap="round" opacity="1" stroke-linejoin="round"/>
<path stroke="#2a0439" stroke-width="20.62" d="M-3.65119+777.516L2053.96+777.516" fill="#2a0439" stroke-linecap="butt" opacity="1" stroke-linejoin="round"/>
<path stroke="#132148" stroke-width="20.62" d="M-2.43231+758.089L2054.08+758.089" fill="#2a0439" stroke-linecap="butt" opacity="1" stroke-linejoin="round"/>
<path stroke="#1f4a77" stroke-width="20.62" d="M6.52716+597.206L10.0274+597.206L10.0274+737.545L6.52716+737.545L6.52716+597.206Z" fill="#1f4a77" stroke-linecap="butt" opacity="1" stroke-linejoin="miter"/>
<path stroke="#1f4a77" stroke-width="20.62" d="M2037.52+548.483L2041.02+548.483L2041.02+738.686L2037.52+738.686L2037.52+548.483Z" fill="#1f4a77" stroke-linecap="butt" opacity="1" stroke-linejoin="miter"/>
</g>
</svg>
