<?xml version="1.0" encoding="UTF-8" standalone="no"?> <!-- Created with Vectornator for iOS (http://vectornator.io/) --><!DOCTYPE svg PUBLIC "-//W3C//DTD SVG 1.1//EN" "http://www.w3.org/Graphics/SVG/1.1/DTD/svg11.dtd">
<svg height="100%" style="fill-rule:evenodd;clip-rule:evenodd;stroke-linecap:round;stroke-linejoin:round;" xmlns:xlink="http://www.w3.org/1999/xlink" xmlns="http://www.w3.org/2000/svg" xml:space="preserve" width="100%" xmlns:vectornator="http://vectornator.io" version="1.1" viewBox="0 0 2048 1536">
<metadata>
<vectornator:setting key="DimensionsVisible" value="1"/>
<vectornator:setting key="SnapToGrid" value="1"/>
<vectornator:setting key="SnapToPoints" value="0"/>
<vectornator:setting key="GuidesVisible" value="1"/>
<vectornator:setting key="RulersVisible" value="1"/>
<vectornator:setting key="CMYKEnabledKey" value="0"/>
<vectornator:setting key="SnapToEdges" value="1"/>
<vectornator:setting key="DisplayWhiteBackground" value="0"/>
<vectornator:setting key="SnapToGuides" value="1"/>
<vectornator:setting key="GridSpacing" value="36"/>
<vectornator:setting key="Units" value="Pixels"/>
<vectornator:setting key="DynamicGuides" value="1"/>
<vectornator:setting key="New" value="1"/>
</metadata>
<defs>
<radialGradient cx="1044" r="1440.45" id="RadialGradient" gradientUnits="userSpaceOnUse" gradientTransform="matrix(1 0 0 1 0 0)" cy="396">
<stop stop-color="#b40174" offset="0"/>
<stop stop-color="#8b025f" offset="0.1175"/>
<stop stop-color="#540341" offset="0.2325"/>
<stop stop-color="#430339" offset="0.35"/>
<stop stop-color="#30042e" offset="0.5075"/>
<stop stop-color="#1a0423" offset="0.7625"/>
</radialGradient>
</defs>
<g id="Background" vectornator:layerName="Background">
<path stroke="#1a0423" stroke-width="5" d="M2048+1536L0+1536L0+720L2052+720L2048+1536Z" fill="url(#RadialGradient)" stroke-linecap="round" opacity="1" stroke-linejoin="round"/>
<path stroke="#aa2777" vectornator:shadowColor="#ff009c" vectornator:shadowOffset="0" stroke-width="1.91" fill="none" stroke-linecap="round" vectornator:shadowAngle="1.70043" stroke-linejoin="round" opacity="1" vectornator:shadowRadius="39.1403" d="M1043.8+720L1042.07+1536M1176.81+720L1244.79+1534.02M1721.02+720L2049.35+1346.71M1302.49+720L1448.23+1553.21M1411.93+720L1620+1548M1515.02+720L1800+1548M1618.02+720L2018.3+1576.5M1810.02+720L2048.9+1088.36M1908+720L2048.92+894.49M1995.3+720L2048.77+786.21M911.189+714.788L842.664+1535.54M366.975+714.788L-1.22463+1409.29M785.51+714.788L639.767+1548M676.07+714.788L468+1542.79M572.975+714.788L286.11+1548.28M469.975+714.788L85.7582+1536.94M277.975+714.788L-0.873329+1144.78M180+714.788L-1.04832+938.967M92.6982+714.788L-0.0175956+829.592M-2.50164+1245.08L2047.51+1245.08M-1.04678+1081.7L2050.31+1081.7M-1.04678+959.773L2052.37+959.773M-1.89859+896.507L2050.13+896.507M-1.79843+847.486L2052+847.486M5.00679e-05+807.683L2051.54+807.683M5.00679e-05+777.516L2052+777.516M-1.14182+754.473L2052.57+754.473M-2.34528+737.986L2049.91+737.986M-2.21979+1464.17L2050.04+1464.17" vectornator:shadowOpacity="1"/>
<path stroke="#1a0423" stroke-width="5" d="M0-3.00407e-05L0+720L2052+720L2052-3.00407e-05L0-3.00407e-05Z" fill="#050f23" stroke-linecap="round" opacity="1" stroke-linejoin="round"/>
</g>
</svg>
