<?xml version="1.0" encoding="UTF-8" standalone="no"?> <!-- Created with Vectornator for iOS (http://vectornator.io/) --><!DOCTYPE svg PUBLIC "-//W3C//DTD SVG 1.1//EN" "http://www.w3.org/Graphics/SVG/1.1/DTD/svg11.dtd">
<svg height="100%" style="fill-rule:evenodd;clip-rule:evenodd;stroke-linecap:round;stroke-linejoin:round;" xmlnsXlink="http://www.w3.org/1999/xlink" xmlns="http://www.w3.org/2000/svg" xmlSpace="preserve" width="100%" xmlnsVectornator="http://vectornator.io" version="1.1" viewBox="0 0 841.995 326.025">
<metadata>
</metadata>
<g id="Logo" vectornatorLayerName="Logo">
<path stroke="#f6b208" vectornatorShadowColor="#252120" vectornatorShadowOffset="0" stroke-width="1.1" fill="#f6b208" stroke-linecap="square" vectornatorShadowAngle="0.22109" stroke-linejoin="round" opacity="1" vectornatorShadowRadius="0" d="M26.137+130.563L18.259+189.573L806.727+179.333L816.365+117.894L26.137+130.563Z" vectornatorShadowOpacity="1"/>
<path stroke="#8f270d" vectornatorShadowColor="#252120" vectornatorShadowOffset="0" stroke-width="5" fill="none" stroke-linecap="round" vectornatorShadowAngle="0.22109" stroke-linejoin="round" opacity="1" vectornatorShadowRadius="0" d="M58.2271+196.391C58.2271+196.391+759.491+191.828+750.788+191.828" vectornatorShadowOpacity="1"/>
<path stroke="#8f270d" vectornatorShadowColor="#252120" vectornatorShadowOffset="0" stroke-width="5" fill="none" stroke-linecap="round" vectornatorShadowAngle="0.22109" stroke-linejoin="round" opacity="1" vectornatorShadowRadius="0" d="M255.329+165.478C255.329+80.2433+324.425+11.1469+409.66+11.1469C494.895+11.1469+563.991+80.2433+563.991+165.478C563.991+250.713+494.895+319.809+409.66+319.809C324.425+319.809+255.329+250.713+255.329+165.478Z" vectornatorShadowOpacity="1"/>
<path stroke="#252120" vectornatorShadowColor="#252120" vectornatorShadowOffset="0" stroke-width="1" fill="#252120" stroke-linecap="round" vectornatorShadowAngle="0.22109" stroke-linejoin="round" opacity="1" vectornatorShadowRadius="0" d="M483.717+111.961C475.14+111.799+462.495+112.44+456.994+112.167C455.931+113.512+456.073+116.001+457.509+116.592C460.024+117.628+461.075+116.285+464.404+116.729C467.577+117.152+463.862+155.794+464.027+161.564C464.153+165.751+461.034+163.017+458.572+164.034C458.082+166.025+458.504+170.442+459.739+171.307C461.452+171.681+472.911+170.709+476.445+171.513C476.98+169.264+476.88+168.583+476.719+164.515C473.54+162.78+472.386+166.062+472.5+161.29C472.069+152.511+471.811+145.771+472.774+143.555C475.18+143.685+475.361+143.591+477.611+143.28C479.522+144.51+493.104+142.519+494.935+166.607C494.935+166.607+494.84+169.856+496.478+170.724C501.874+171.205+504.661+171.411+507.456+170.929C508.034+169.677+508.652+168.067+506.529+164.377C501.688+163.085+500.796+165.674+500.149+160.981C498.949+155.637+497.653+148.68+492.739+144.344C487.825+140.008+497.66+140.584+499.394+136.248C501.128+131.912+508.046+121.98+490.509+112.441C488.971+112.146+486.576+112.015+483.717+111.961ZM473.735+117.004C474.818+116.742+475.992+116.866+476.822+117.038C481.602+117.038+498.337+117.837+497.302+127.158C492.346+139.437+475.395+136.423+472.363+135.905C469.33+135.387+471.162+123.571+471.162+119.302C471.648+117.898+472.651+117.266+473.735+117.004ZM229.868+122.629C225.668+122.761+226.581+131.279+229.731+130.622C229.731+130.622+236.555+131.537+237.998+131.274C239.442+131.012+242.732+132.845+242.732+137.963C244.57+145.576+242.87+173.948+242.87+173.948C242.87+173.948+241.942+180.22+235.117+180.089C228.292+179.957+226.335+179.711+226.335+179.711C226.335+179.711+223.31+186.023+226.987+186.023C230.399+186.023+263.479+186.017+265.579+185.886C267.679+185.755+271.597+178.791+264.378+178.922C257.159+179.053+255.082+179.3+255.082+179.3C255.082+179.3+251.777+178.783+251.514+174.977C251.44+173.9+251.415+169.841+251.377+164.583C251.28+151.265+251.274+130.245+251.274+130.245C251.274+130.245+254.296+121.706+243.796+123.281C233.296+124.856+234.068+122.498+229.868+122.629ZM39.619+123.418C36.9598+123.977+35.2689+122.421+32.964+128.701C32.7847+137.085+31.8659+145.699+31.7634+150.519C32.7888+154.825+37.2666+154.464+37.6979+150.93C38.1805+146.977+38.7271+134.945+38.7271+134.945L42.8778+129.627L50.9392+130.314C50.9392+130.314+55.8374+127.23+54.9185+137.037C53.2778+148.215+54.2912+158.055+51.5224+174.36C52.7471+179.871+50.014+177.852+46.9943+178.956C46.9943+178.956+43.045+178.865+39.7562+178.991C37.6777+180.905+36.3921+184.248+39.619+186.092C51.1434+186.322+64.0779+185.907+72.242+186.641C74.6005+184.179+73.4561+182.116+71.7274+180.157C67.523+179.542+67.2636+181.269+64.0776+179.437C60.3671+179.772+61.6764+173.605+61.6764+173.605L62.8084+139.576C62.8084+139.576+62.2951+131.448+65.2097+131.24C67.6298+129.453+68.2382+130.94+71.6588+130.554C76.3393+130.633+76.8582+129.516+76.7358+134.945C78.3417+139.553+75.9759+146.474+78.1079+149.009C80.24+151.545+82.6309+153.103+84.7629+150.107C85.3782+145.39+84.7629+131.651+84.7629+131.651C83.84+125.909+85.2754+123.977+78.5882+123.418C78.5882+123.418+52.034+123.567+39.619+123.418ZM740.791+130.554C730.939+128.916+719.488+138.649+719.488+138.649C720.173+130.085+709.019+130.591+704.223+132.989C699.427+135.387+704.909+139.164+704.909+139.164C704.909+139.164+711.597+135.058+711.083+142.594C710.57+150.131+711.422+162.974+711.083+165.887C710.822+168.14+709.772+168.819+708.168+171.032C706.188+172.03+703.938+169.566+701.478+171.375C701.325+174.943+702.074+174.625+703.537+176.109C707.6+176.492+726.499+176.666+732.489+175.492C734.265+173.306+733.836+169.338+728.338+169.42C726.197+171.944+725.508+170.725+722.061+171.375C719.159+170.801+719.537+167.81+719.316+165.715C719.659+161.262+718.621+155.736+720.174+150.656C724.013+145.152+727.464+141.766+730.637+139.781C734.967+137.072+738.778+136.948+742.266+137.655C744.943+138.955+740.576+143.412+744.839+145.51C753.08+145.155+751.309+139.99+749.641+136.763C747.2+132.909+744.074+131.1+740.791+130.554ZM606.594+130.691C602.518+130.854+597.5+132.488+591.877+137.277C586.185+141.164+588.542+150.344+592.152+153.537C595.761+156.73+583.687+156.853+582.993+163.794C583.132+167.126+585.476+166.972+587.281+173.948C585.892+176.586+577.98+181.166+590.197+191.718C611.715+200.464+630.061+192.968+632.699+188.664C635.337+184.361+646.022+165.882+597.709+169.214C586.603+167.687+592.004+162.683+595.891+160.878C599.778+159.074+617.282+164.062+621.447+152.817C625.612+141.572+621.58+146.731+621.996+142.011C622.413+137.291+627.007+137.137+629.783+140.33C632.56+143.523+642.543+133.969+630.881+132.303C623.824+130.899+628.097+137.966+622.682+134.773C621.711+134.773+617.537+134.224+617.537+134.224C617.537+134.224+613.386+130.42+606.594+130.691ZM668.066+131.789C655.301+131.789+644.946+142.643+644.946+156.041C644.946+163.244+649.046+167.613+653.797+172.054C657.884+175.874+662.051+178.496+668.066+180.294C678.255+176.08+688.294+174.213+688.58+167.225C686.511+164.063+686.381+163.385+679.112+168.871C671.843+174.357+657.98+172.571+654.962+162.148C656.197+156.936+656.206+156.931+660.725+157.619C667.006+156.815+683.338+160.156+689.918+156.659C689.918+148.646+689.404+146.414+681.017+138.574C674.089+132.922+674.591+131.789+668.066+131.789ZM782.71+133.195C764.74+132.967+752.63+150.057+781.921+158.992C813.3+159.25+804.602+174.541+788.267+173.056C772.736+172.036+776.818+164.592+771.15+163.005C765.481+161.418+766.841+165.349+767.067+169.317C767.294+173.285+768.645+182.246+773.86+177.824C776.048+174.571+776.745+178.222+781.921+178.613C794.566+183.134+823.578+170.229+801.646+156.179C792.165+150.239+778.301+152.98+776.261+149.352C774.22+145.724+774.467+139.36+787.032+141.188C799.276+145.836+798.662+142.451+799.69+147.363C806.544+153.074+806.448+142.903+806.448+142.903C806.448+142.903+807.324+136.081+804.15+135.288C800.976+134.494+802.877+140.108+795.643+136.42C791.306+134.209+786.857+133.248+782.71+133.195ZM547.282+135.288C543.842+135.288+540.584+136.085+537.677+137.483C530.231+141.064+525.088+148.667+525.088+157.482C525.088+169.739+535.026+179.677+547.282+179.677C559.539+179.677+569.477+169.739+569.477+157.482C569.477+145.226+559.539+135.288+547.282+135.288ZM378.238+104.171C369.883+105.475+361.91+112.266+361.91+112.266C362.595+103.702+351.474+104.208+346.679+106.606C341.883+109.004+347.365+112.746+347.365+112.746C347.365+112.747+354.019+108.641+353.505+116.177C352.991+123.713+353.844+136.557+353.505+139.469C353.243+141.722+352.194+142.401+350.589+144.615C348.609+145.612+346.394+143.149+343.934+144.958C343.781+148.525+344.53+148.242+345.993+149.726C350.056+150.109+368.92+150.248+374.911+149.074C376.686+146.888+376.258+142.921+370.76+143.003C368.618+145.527+367.93+144.307+364.482+144.958C361.58+144.384+361.959+141.392+361.738+139.298C362.081+134.844+361.042+129.318+362.596+124.238C371.673+111.221+378.644+110.047+384.687+111.271C387.365+112.572+382.998+116.995+387.26+119.093C395.501+118.737+393.731+113.607+392.063+110.38C388.402+104.599+383.251+103.388+378.238+104.171ZM605.839+137.758C610.816+137.758+616.522+140.852+616.302+146.128C615.993+153.537+611.468+154.806+606.491+154.807C601.514+154.807+595.844+152.148+596.268+144.79C596.598+139.075+600.862+137.757+605.839+137.758ZM305.44+138.066C292.473+138.066+281.976+148.563+281.976+161.53C281.976+174.497+292.473+185.028+305.44+185.028C318.407+185.028+328.938+174.497+328.938+161.53C328.938+148.563+318.407+138.066+305.44+138.066ZM666.681+138.336C670.969+137.53+673.222+139.57+676.142+142.262C678.855+145.971+678.617+149.164+678.289+152.68C672.528+152.577+655.237+152.268+655.237+152.268C656.308+147.962+654.967+145.756+657.018+143.772C659.489+140.267+662.991+139.762+666.681+138.336ZM169.768+140.57C165.091+141.833+160.29+142.07+156.595+141.085C153.27+142.994+156.562+145.572+158.07+148.22C161.272+148.713+160.785+147.71+162.633+151.651C167.651+159.471+172.989+169.992+176.56+179.505C180.308+185.048+179.647+184.586+176.937+189.728C174.228+194.869+169.445+199.068+165.72+200.053C161.995+201.039+162.292+196.105+162.015+193.673C163.638+192.884+164.919+190.27+163.01+189.008C158.784+188.51+156.017+188.821+153.954+191.992C153.208+195.845+152.523+199.624+157.419+203.072C162.314+206.52+167.243+207.038+174.57+203.312C179.791+196.475+179.154+200.554+185.651+188.116C191.1+173.477+195.43+162.405+199.955+152.645C200.567+149.483+202.501+151.756+203.763+149.078C205.025+146.399+207.831+143.636+204.998+141.943C202.166+140.249+195.552+140.811+192.443+142.32C189.333+143.829+190.873+145.068+191.242+147.5C191.612+149.932+192.954+148.424+191.722+152.611C191.024+154.985+190.944+156.041+189.63+158.443C188.626+160.278+188.126+162.194+187.126+164.034C184.817+168.283+185.081+168.519+183.524+170.758C181.535+173.617+179.14+169.681+176.8+165.955C174.46+162.23+175.174+161.042+173.85+157.071C172.526+153.099+171.918+151.92+171.517+150.073C171.117+148.225+170.846+147.629+173.713+146.745C173.282+144.374+174.047+141.987+169.768+140.57ZM546.836+141.908C553.849+141.908+560.524+148.828+560.524+157.174C560.524+165.519+554.157+172.13+547.145+172.13C540.133+172.13+533.252+165.691+533.252+157.345C533.252+148.999+539.824+141.908+546.836+141.908ZM115.533+143.967C106.484+144.095+101.491+144.874+98.0042+149.181C94.5177+153.488+97.7264+159.736+99.1019+159.095C101.46+161.402+105.384+160.185+106.717+158.134C106.543+156.066+106.281+155.027+106.923+152.988C112.634+150.147+120.371+149.968+127.128+154.532C129.302+157.334+128.074+159.625+128.02+161.29C125.482+163.52+123.316+162.856+116.974+163.451C108.437+166.374+101.692+165.909+96.9751+172.061C92.258+178.214+94.3155+186.168+98.1071+188.081C107.481+193.717+118.102+186.513+126.614+186.743C133.719+186.255+130.528+187.867+132.137+188.973C136.367+189.589+140.68+191.153+143.525+189.179C144.856+186.81+144.507+183.95+143.251+182.284C141.05+181.677+139.823+182.431+138.277+183.896C135.022+184.873+135.818+182.908+135.533+180.878C134.661+174.904+134.862+166.79+135.018+158.649C135.087+155.049+135.325+149.535+133.474+148.392C128.288+145.187+124.583+143.838+115.533+143.967ZM302.73+146.917C312.26+146.917+319.196+150.285+319.196+159.815C319.196+169.345+315.279+177.104+305.749+177.104C296.219+177.104+292.459+173.05+292.473+163.52C292.481+158.107+293.2+146.917+302.73+146.917ZM122.737+168.459C124.729+168.361+126.604+168.464+128.192+168.803C129.567+170.361+128.892+175.77+127.883+178.888C121.945+182.762+114.965+184.583+104.419+184.308C101.668+183.024+99.2359+177.617+105.174+173.742C109.627+170.836+116.762+168.754+122.737+168.459ZM608.446+174.497C618.483+174.497+628.205+177.452+628.205+181.769C628.205+186.087+618.757+190.826+608.721+190.826C598.684+190.826+590.368+186.91+590.368+182.593C590.368+178.275+598.41+174.497+608.446+174.497Z" vectornatorShadowOpacity="1"/>
</g>
</svg>
